<?xml version="1.0" encoding="UTF-8"?>
<svg version="1.1" xmlns="http://www.w3.org/2000/svg" width="164" height="306">
<path d="M0 0 C54.12 0 108.24 0 164 0 C164 100.98 164 201.96 164 306 C109.88 306 55.76 306 0 306 C0 205.02 0 104.04 0 0 Z " fill="#FEFDFD" transform="translate(0,0)"/>
<path d="M0 0 C0.99 0.33 1.98 0.66 3 1 C0.25 6.875 0.25 6.875 -2 8 C-2.84252892 9.3870204 -3.62643838 10.81009165 -4.375 12.25 C-6.29172971 15.82751628 -8.42607838 18.8540958 -11 22 C-11 22.66 -11 23.32 -11 24 C-10.67 23.34 -10.34 22.68 -10 22 C-9.01 22 -8.02 22 -7 22 C-7.66 23.32 -8.32 24.64 -9 26 C-9.99 26 -10.98 26 -12 26 C-12.28875 26.763125 -12.5775 27.52625 -12.875 28.3125 C-14 31 -14 31 -16 34 C-17.32 34 -18.64 34 -20 34 C-19.38152383 29.97990492 -17.27091339 27.30904522 -15 24 C-14.360625 22.865625 -13.72125 21.73125 -13.0625 20.5625 C-10.95262543 16.82643752 -8.63147289 13.39321505 -6 10 C-5.34 10 -4.68 10 -4 10 C-3.896875 9.278125 -3.79375 8.55625 -3.6875 7.8125 C-2.94013068 4.75508007 -1.71954811 2.61670365 0 0 Z M-24 34 C-22.68 34 -21.36 34 -20 34 C-19.53475491 38.62707388 -20.89921508 40.99741181 -23.4375 44.8125 C-24.39462891 46.27623047 -24.39462891 46.27623047 -25.37109375 47.76953125 C-25.90863281 48.50558594 -26.44617187 49.24164063 -27 50 C-27.33 50 -27.66 50 -28 50 C-28.57475136 45.11461346 -26.64346238 42.96519357 -24 39 C-23.66290938 36.24741188 -23.66290938 36.24741188 -24 34 Z " fill="#F8F0F2" transform="translate(84,78)"/>
<path d="M0 0 C0.33 0.99 0.66 1.98 1 3 C0.01 4.485 0.01 4.485 -1 6 C0.32 5.67 1.64 5.34 3 5 C2.37887616 9.03730494 0.5015653 11.82233598 -2 15 C-5.26394867 17.15281721 -6.96343388 18.11267023 -10.875 17.6875 C-11.57625 17.460625 -12.2775 17.23375 -13 17 C-12.71125 16.29875 -12.4225 15.5975 -12.125 14.875 C-10.97866412 11.94547497 -9.97374346 8.99078347 -9 6 C-7.68 6.99 -6.36 7.98 -5 9 C-4.731875 8.2575 -4.46375 7.515 -4.1875 6.75 C-3.05770579 4.13363446 -1.79106798 2.19812889 0 0 Z " fill="#FBF3F5" transform="translate(69,162)"/>
<path d="M0 0 C0 0.66 0 1.32 0 2 C-1.65 2 -3.3 2 -5 2 C-5 2.66 -5 3.32 -5 4 C-3.35 4.33 -1.7 4.66 0 5 C-0.33 6.32 -0.66 7.64 -1 9 C-5.95 9 -10.9 9 -16 9 C-16 7.02 -16 5.04 -16 3 C-14.27318563 2.49193553 -12.54342021 1.99389533 -10.8125 1.5 C-9.84957031 1.2215625 -8.88664062 0.943125 -7.89453125 0.65625 C-5.14654124 0.03322392 -2.80401584 -0.12302812 0 0 Z " fill="#FBF2F3" transform="translate(80,247)"/>
<path d="M0 0 C1.93166016 0.01740234 1.93166016 0.01740234 3.90234375 0.03515625 C5.19269531 0.04417969 6.48304687 0.05320313 7.8125 0.0625 C8.81152344 0.07410156 9.81054688 0.08570313 10.83984375 0.09765625 C10.83984375 0.42765625 10.83984375 0.75765625 10.83984375 1.09765625 C8.19984375 1.42765625 5.55984375 1.75765625 2.83984375 2.09765625 C2.50984375 3.74765625 2.17984375 5.39765625 1.83984375 7.09765625 C-1.13015625 6.60265625 -1.13015625 6.60265625 -4.16015625 6.09765625 C-4.49015625 5.10765625 -4.82015625 4.11765625 -5.16015625 3.09765625 C-6.15015625 3.59265625 -6.15015625 3.59265625 -7.16015625 4.09765625 C-9.15975637 4.13764825 -11.16062867 4.14112424 -13.16015625 4.09765625 C-12.83015625 3.43765625 -12.50015625 2.77765625 -12.16015625 2.09765625 C-10.34765625 1.71875 -10.34765625 1.71875 -8.16015625 1.53515625 C-4.92837788 1.25237564 -3.17145469 0.0980054 0 0 Z " fill="#F9F1F4" transform="translate(117.16015625,168.90234375)"/>
<path d="M0 0 C0.33 0 0.66 0 1 0 C1.33 2.31 1.66 4.62 2 7 C2.99 7.33 3.98 7.66 5 8 C3.125 13.875 3.125 13.875 2 15 C1.84417697 16.34015221 1.74955858 17.68758903 1.68359375 19.03515625 C1.62075195 20.24848633 1.62075195 20.24848633 1.55664062 21.48632812 C1.51732422 22.33646484 1.47800781 23.18660156 1.4375 24.0625 C1.39431641 24.91650391 1.35113281 25.77050781 1.30664062 26.65039062 C1.20023298 28.76672037 1.09958269 30.88333813 1 33 C0.67 33 0.34 33 0 33 C0 22.11 0 11.22 0 0 Z " fill="#F9EFF2" transform="translate(24,144)"/>
<path d="M0 0 C0.86753906 0.14695313 1.73507813 0.29390625 2.62890625 0.4453125 C4.73786432 0.7923253 6.84962578 1.12313417 8.96484375 1.4296875 C14.7751423 2.30008702 19.73713062 3.36856531 25 6 C24.34 6.66 23.68 7.32 23 8 C22.19949219 7.70996094 22.19949219 7.70996094 21.3828125 7.4140625 C14.06501032 4.85662991 6.80229228 2.82015993 -1 3 C-0.67 2.01 -0.34 1.02 0 0 Z " fill="#F7F2F2" transform="translate(58,185)"/>
<path d="M0 0 C2 3 2 3 2 6 C1.34 6 0.68 6 0 6 C-0.268125 6.94875 -0.53625 7.8975 -0.8125 8.875 C-2 12 -2 12 -5 14 C-5 11.69 -5 9.38 -5 7 C-4.01 6.67 -3.02 6.34 -2 6 C-1.855625 5.195625 -1.71125 4.39125 -1.5625 3.5625 C-1 1 -1 1 0 0 Z " fill="#F9F1F4" transform="translate(37,170)"/>
<path d="M0 0 C6.43681228 0.51085812 11.95942424 1.72942897 18 4 C18 4.66 18 5.32 18 6 C16.27073126 5.68806536 14.54158956 5.37542638 12.8125 5.0625 C11.84957031 4.88847656 10.88664063 4.71445312 9.89453125 4.53515625 C7.25760028 4.0476265 4.6280095 3.53328895 2 3 C2 2.34 2 1.68 2 1 C1.34 0.67 0.68 0.34 0 0 Z " fill="#F7F1F3" transform="translate(123,47)"/>
<path d="M0 0 C0.66 0 1.32 0 2 0 C1.66288364 5.88209918 1.36101136 10.95848296 -2 16 C-2.99 16.33 -3.98 16.66 -5 17 C-4.38899695 13.08958048 -3.16799899 9.62419744 -1.71875 5.96484375 C-0.99852224 3.99596025 -0.47275266 2.0410187 0 0 Z " fill="#F9F0F2" transform="translate(30,184)"/>
<path d="M0 0 C0.66 0 1.32 0 2 0 C2.33 0.66 2.66 1.32 3 2 C3.66 1.34 4.32 0.68 5 0 C4.67 2.64 4.34 5.28 4 8 C2.35 8.33 0.7 8.66 -1 9 C-1.09765625 2.84765625 -1.09765625 2.84765625 -1 1 C-0.67 0.67 -0.34 0.34 0 0 Z " fill="#F9EFF3" transform="translate(43,144)"/>
<path d="M0 0 C0 3 0 3 -1.6796875 4.75390625 C-2.76636719 5.64916016 -2.76636719 5.64916016 -3.875 6.5625 C-4.59429687 7.16191406 -5.31359375 7.76132813 -6.0546875 8.37890625 C-7.01761719 9.18134766 -7.01761719 9.18134766 -8 10 C-8.66 10.66 -9.32 11.32 -10 12 C-10.99 12 -11.98 12 -13 12 C-13 10 -13 10 -11.6796875 8.6328125 C-7.91983544 5.49146424 -4.13873088 2.62456105 0 0 Z " fill="#F8F5F6" transform="translate(98,76)"/>
<path d="M0 0 C0.33 0 0.66 0 1 0 C0.43179252 5.45479185 -0.94637945 9.91059256 -3 15 C-3.99 15 -4.98 15 -6 15 C-4.40109514 9.80355921 -2.25861997 4.93387858 0 0 Z " fill="#F8F1F3" transform="translate(23,209)"/>
<path d="M0 0 C0.33 0 0.66 0 1 0 C1.11138159 5.45769811 0.91657981 10.61509359 0 16 C-0.66 15.67 -1.32 15.34 -2 15 C-1.85973717 12.68715544 -1.71264442 10.37472409 -1.5625 8.0625 C-1.48128906 6.77472656 -1.40007813 5.48695313 -1.31640625 4.16015625 C-1 1 -1 1 0 0 Z " fill="#FAEFF2" transform="translate(24,184)"/>
<path d="M0 0 C0 1.98 0 3.96 0 6 C-0.99 6.33 -1.98 6.66 -3 7 C-3.33 6.67 -3.66 6.34 -4 6 C-4.33 6.99 -4.66 7.98 -5 9 C-5.99 9.33 -6.98 9.66 -8 10 C-6.95558375 6.6768574 -4.14711476 0 0 0 Z " fill="#F8F2F4" transform="translate(8,196)"/>
<path d="M0 0 C0.66 0.33 1.32 0.66 2 1 C1.71125 1.53625 1.4225 2.0725 1.125 2.625 C-0.16711808 5.35280484 -1.08558592 8.12612718 -2 11 C-2.66 10.34 -3.32 9.68 -4 9 C-3.8125 5.5 -3.8125 5.5 -3 2 C-2.01 1.34 -1.02 0.68 0 0 Z " fill="#FBEFF1" transform="translate(139,167)"/>
<path d="M0 0 C0.99 0.33 1.98 0.66 3 1 C2.43589129 4.94876098 1.34264206 7.75634176 -1 11 C-1.99 11.33 -2.98 11.66 -4 12 C-4 11.01 -4 10.02 -4 9 C-3.34 8.67 -2.68 8.34 -2 8 C-1.31527335 6.11235097 -1.31527335 6.11235097 -0.875 3.9375 C-0.70742187 3.20402344 -0.53984375 2.47054688 -0.3671875 1.71484375 C-0.24601562 1.14894531 -0.12484375 0.58304688 0 0 Z " fill="#F8F2F4" transform="translate(116,21)"/>
<path d="M0 0 C1.11375 0.3403125 1.11375 0.3403125 2.25 0.6875 C-0.28976671 3.79165931 -2.97187398 4.56210076 -6.75 5.6875 C-7.74 6.1825 -7.74 6.1825 -8.75 6.6875 C-6.97710463 2.40300285 -4.94524284 -0.56195941 0 0 Z " fill="#F9F1F4" transform="translate(40.75,193.3125)"/>
<path d="M0 0 C5.94 0.99 5.94 0.99 12 2 C12 2.66 12 3.32 12 4 C3.42857143 4.28571429 3.42857143 4.28571429 0 2 C0 1.34 0 0.68 0 0 Z " fill="#F9F2F4" transform="translate(148,185)"/>
<path d="M0 0 C0 3 0 3 -2.1875 5.625 C-5.00654002 8.00552268 -6.39755548 8.69121904 -10 9 C-6.83047153 5.73991357 -3.60062011 2.77762123 0 0 Z " fill="#FAF1F4" transform="translate(118,124)"/>
<path d="M0 0 C0.33 0 0.66 0 1 0 C1 4.29 1 8.58 1 13 C-0.32 13.33 -1.64 13.66 -3 14 C-2.5359375 12.7625 -2.5359375 12.7625 -2.0625 11.5 C-0.88122417 7.60873845 -0.41775832 4.03833047 0 0 Z " fill="#F8F2F4" transform="translate(101,112)"/>
<path d="M0 0 C0.66 0.33 1.32 0.66 2 1 C-0.37823834 5.84455959 -0.37823834 5.84455959 -2 8 C-4.75 8.9375 -4.75 8.9375 -7 9 C-6.34 8.01 -5.68 7.02 -5 6 C-4.34 6 -3.68 6 -3 6 C-2.690625 5.195625 -2.38125 4.39125 -2.0625 3.5625 C-1 1 -1 1 0 0 Z " fill="#F6F1F3" transform="translate(94,64)"/>
<path d="M0 0 C0 0.99 0 1.98 0 3 C-2.70879335 4.35439668 -5.00933268 4.06501451 -8 4 C-8 3.34 -8 2.68 -8 2 C-5.36 1.34 -2.72 0.68 0 0 Z " fill="#FBEFF3" transform="translate(152,163)"/>
<path d="M0 0 C0 0.66 0 1.32 0 2 C-5.41176471 6 -5.41176471 6 -8 6 C-6.72879117 2.18637351 -4.19078006 0 0 0 Z " fill="#F8EFF2" transform="translate(64,288)"/>
<path d="M0 0 C-3.85756507 2.15305957 -6.55129785 3.39253254 -11 3 C-7.17860188 -0.1390056 -4.83859894 -1.61286631 0 0 Z " fill="#F6EDEE" transform="translate(91,177)"/>
<path d="M0 0 C0.33 0 0.66 0 1 0 C0.51171875 6.0546875 0.51171875 6.0546875 0 8 C-0.99 8.66 -1.98 9.32 -3 10 C-2.39009109 6.44219804 -1.4216319 3.3171411 0 0 Z " fill="#FBEFF3" transform="translate(51,134)"/>
</svg>
